<svg width="26" height="29" viewBox="0 0 26 29" fill="none" xmlns="http://www.w3.org/2000/svg">
<path d="M7.29429 12.0332H4.18144C3.91709 12.0332 3.70312 12.2472 3.70312 12.5115V15.6244C3.70312 15.8884 3.91709 16.1027 4.18144 16.1027H7.29429C7.55864 16.1027 7.7726 15.8884 7.7726 15.6244V12.5115C7.7726 12.2475 7.55864 12.0332 7.29429 12.0332ZM6.81598 15.1461H4.65975V12.9898H6.81598V15.1461Z" fill="#E0F0FF"/>
<path d="M14.5541 12.0332H11.4412C11.1769 12.0332 10.9629 12.2472 10.9629 12.5115V15.6244C10.9629 15.8884 11.1769 16.1027 11.4412 16.1027H14.5541C14.8181 16.1027 15.0324 15.8884 15.0324 15.6244V12.5115C15.0324 12.2475 14.8181 12.0332 14.5541 12.0332ZM14.0757 15.1461H11.9195V12.9898H14.0757V15.1461Z" fill="#E0F0FF"/>
<path d="M21.5912 12.0332H18.4783C18.2143 12.0332 18 12.2472 18 12.5115V15.6244C18 15.8884 18.2143 16.1027 18.4783 16.1027H21.5912C21.8552 16.1027 22.0695 15.8884 22.0695 15.6244V12.5115C22.0695 12.2475 21.8552 12.0332 21.5912 12.0332ZM21.1129 15.1461H18.9566V12.9898H21.1129V15.1461Z" fill="#E0F0FF"/>
<path d="M7.29429 19.124H4.18144C3.91709 19.124 3.70312 19.3383 3.70312 19.6023V22.7152C3.70312 22.9792 3.91709 23.1935 4.18144 23.1935H7.29429C7.55864 23.1935 7.7726 22.9792 7.7726 22.7152V19.6023C7.7726 19.3383 7.55864 19.124 7.29429 19.124ZM6.81598 22.2369H4.65975V20.0806H6.81598V22.2369Z" fill="#E0F0FF"/>
<path d="M14.5541 19.124H11.4412C11.1769 19.124 10.9629 19.3383 10.9629 19.6023V22.7152C10.9629 22.9792 11.1769 23.1935 11.4412 23.1935H14.5541C14.8181 23.1935 15.0324 22.9792 15.0324 22.7152V19.6023C15.0324 19.3383 14.8181 19.124 14.5541 19.124ZM14.0757 22.2369H11.9195V20.0806H14.0757V22.2369Z" fill="#E0F0FF"/>
<path d="M21.5912 19.124H18.4783C18.2143 19.124 18 19.3383 18 19.6023V22.7152C18 22.9792 18.2143 23.1935 18.4783 23.1935H21.5912C21.8552 23.1935 22.0695 22.9792 22.0695 22.7152V19.6023C22.0695 19.3383 21.8552 19.124 21.5912 19.124ZM21.1129 22.2369H18.9566V20.0806H21.1129V22.2369Z" fill="#E0F0FF"/>
<path d="M25.3792 2.77109H22.2201C22.216 2.77109 22.2125 2.77205 22.2083 2.77237V2.13525C22.2083 1.09317 21.3608 0.245605 20.3187 0.245605C19.2766 0.245605 18.429 1.09349 18.429 2.13525V2.77109H14.8694V2.13525C14.8694 1.09317 14.0219 0.245605 12.9798 0.245605C11.9377 0.245605 11.0901 1.09349 11.0901 2.13525V2.77109H7.53022V2.13525C7.53022 1.09317 6.68265 0.245605 5.64057 0.245605C4.59849 0.245605 3.75092 1.09349 3.75092 2.13525V2.77141C3.74933 2.77141 3.74773 2.77109 3.74614 2.77109H0.587687C0.32334 2.77109 0.109375 2.98506 0.109375 3.2494V28.0406C0.109375 28.3046 0.32334 28.5189 0.587687 28.5189H25.3792C25.6432 28.5189 25.8575 28.3046 25.8575 28.0406V3.2494C25.8575 2.98506 25.6432 2.77109 25.3792 2.77109ZM19.3857 2.13525C19.3857 1.62059 19.804 1.20223 20.3187 1.20223C20.8333 1.20223 21.2517 1.62059 21.2517 2.13525V4.77458C21.2517 5.28892 20.8333 5.70761 20.3187 5.70761C19.804 5.70761 19.3857 5.28924 19.3857 4.77458V2.13525ZM12.9798 1.20223C13.4941 1.20223 13.9128 1.62059 13.9128 2.13525V4.77458C13.9128 5.28892 13.4944 5.70761 12.9798 5.70761C12.4651 5.70761 12.0468 5.28924 12.0468 4.77458V3.29404C12.048 3.27906 12.0512 3.26471 12.0512 3.24908C12.0512 3.23346 12.048 3.21911 12.0468 3.20412V2.13525C12.0468 1.62059 12.4651 1.20223 12.9798 1.20223ZM4.70754 2.13525C4.70754 1.62059 5.12591 1.20223 5.64057 1.20223C6.15491 1.20223 6.5736 1.62059 6.5736 2.13525V4.77458C6.5736 5.28892 6.15523 5.70761 5.64057 5.70761C5.12591 5.70761 4.70754 5.28924 4.70754 4.77458V2.13525ZM24.9009 27.5623H1.066V3.72771H3.74614C3.74773 3.72771 3.74933 3.72739 3.75092 3.72739V4.7749C3.75092 5.81698 4.59881 6.66455 5.64057 6.66455C6.68233 6.66455 7.53022 5.81698 7.53022 4.7749V3.72803H11.0901V4.7749C11.0901 5.81698 11.938 6.66455 12.9798 6.66455C14.0215 6.66455 14.8694 5.81698 14.8694 4.7749V3.72803H18.429V4.7749C18.429 5.81698 19.2766 6.66455 20.3187 6.66455C21.3608 6.66455 22.2083 5.81698 22.2083 4.7749V3.72644C22.2125 3.72644 22.216 3.72771 22.2201 3.72771H24.9009V27.5623Z" fill="#E0F0FF"/>
</svg>
