<svg width="535" height="274" viewBox="0 0 535 274" fill="none" xmlns="http://www.w3.org/2000/svg">
<g clip-path="url(#clip0_2371_15100)">
<path d="M511.254 151.368L509.578 164.73L505.418 197.916H421.859C422.512 190.478 423.404 179.772 424.357 168.214C424.451 167.06 424.549 165.898 424.643 164.73C427.033 135.677 429.648 102.801 429.648 102.801L440.633 104.85L461.946 108.818L470.631 110.434L493.888 114.77C505.484 116.927 513.46 133.736 511.254 151.368V151.368Z" fill="#F2F2F2"/>
<path d="M448.047 49.0391L458.323 67.0424L438.573 81.0557L430.148 58.9263L448.047 49.0391Z" fill="#FFB6B6"/>
<path d="M434.966 66.0708C449.025 66.0708 460.422 54.66 460.422 40.584C460.422 26.508 449.025 15.0972 434.966 15.0972C420.907 15.0972 409.51 26.508 409.51 40.584C409.51 54.66 420.907 66.0708 434.966 66.0708Z" fill="#FFB6B6"/>
<path d="M433.139 46.2822C431.118 43.2022 431.911 41.5912 430.219 40.4593C430.219 40.4593 429.538 40.0038 424.664 39.7442C423.573 31.8814 422.211 30.9279 422.211 30.9279C420.641 29.8289 418.312 30.186 416.862 30.8581C413.797 32.2797 414.152 35.3503 412.088 35.9379C409.237 36.7496 404.05 32.1736 403.539 26.935C403.122 22.6618 405.872 18.5115 406.962 18.731C408.044 18.9487 410.633 15.6394 412.031 15.6905C412.985 15.7253 416.886 14.0278 417.935 14.1606C419.081 14.3055 422.86 16.2797 423.017 15.8286C424.111 12.6944 423.79 11.8247 424.718 10.9281C426.363 9.33926 429.055 10.4457 433.276 11.0397C441.963 12.2619 443.479 9.39411 447.931 11.3379C450.18 12.3198 452.062 14.9679 455.733 20.2239C460.868 27.5744 463.435 31.2497 463.452 35.5363C463.469 39.908 461.354 39.6305 460.425 46.1023C459.392 53.3065 461.588 56.6007 459.188 58.9412C457.334 60.7502 453.564 61.1796 451.583 59.592C448.192 56.8739 452.63 50.3151 448.877 45.5232C446.574 42.5818 441.941 41.273 439.819 42.727C437.42 44.371 438.741 49.1965 437.054 49.6541C435.609 50.046 433.491 46.8189 433.139 46.2822L433.139 46.2822Z" fill="#2F2E41"/>
<path d="M492.437 146.663C491.727 158.818 488.907 162.656 487.919 177.011C487.703 180.162 487.573 183.821 487.573 188.183C487.573 189.296 487.579 190.371 487.579 191.422C487.579 193.658 487.537 195.772 487.277 197.916C487.08 199.628 486.74 201.352 486.179 203.169H431.352C431.346 203.156 431.346 203.144 431.34 203.132C431.019 201.735 430.815 200.4 430.661 199.121C430.612 198.713 430.568 198.312 430.531 197.916C430.482 197.453 430.439 196.995 430.396 196.544C430.229 194.746 430.062 193.047 429.667 191.422C429.137 189.178 428.173 187.065 426.198 185.026C425.39 184.191 424.582 183.543 423.792 182.974C423.637 182.869 423.489 182.764 423.335 182.659C421.15 181.157 419.082 180.076 417.292 177.011C417.261 176.968 417.237 176.918 417.212 176.875C416.903 176.337 416.101 174.928 415.521 173.05C414.91 171.097 414.539 168.644 415.206 166.135C416.793 160.19 422.668 159.597 427.47 153.59C427.988 152.942 428.501 152.225 428.988 151.428C431.161 147.893 431.747 144.779 432.438 141.077C432.549 140.477 432.648 139.884 432.728 139.31C432.79 138.877 432.846 138.451 432.889 138.03C433.271 134.502 433.086 131.462 432.636 128.743C431.167 119.838 426.834 114.326 429.895 106.336C430.859 103.827 432.223 101.942 433.599 100.329C436.512 96.9119 439.506 94.6935 438.987 90.2816C438.462 85.8322 435.092 85.2203 434.716 81.3333C434.525 79.3684 435.166 77.2982 436.37 75.2652V75.2591C440.222 68.7148 449.838 62.6898 455.948 62.8814C457.077 62.9125 458.077 63.1656 458.91 63.6538C461.929 65.4335 460.67 69.3204 465.293 74.7709C468.73 78.8184 472.618 80.4375 474.094 81.2036C479.939 84.2565 484.691 93.26 487.919 104.772C487.944 104.859 487.968 104.945 487.993 105.038C489.987 112.25 491.394 120.437 492.092 128.743C492.388 132.259 492.561 135.794 492.597 139.291C492.629 142.084 492.567 144.507 492.437 146.663Z" fill="#A6BCD2"/>
<path d="M451.382 188.307L450.264 191.421L449.561 193.374L447.931 197.916L446.043 203.168H433.902L435.939 197.916L436.883 195.468L438.451 191.421L441.08 184.624L451.382 188.307Z" fill="#FFB6B6"/>
<path d="M488.112 103.709C488.081 104.111 488.038 104.556 487.994 105.038C487.513 109.944 486.377 118.725 484.717 128.742C483.841 134.026 482.816 139.655 481.662 145.248C479.181 157.316 476.095 169.2 472.607 177.01C471.984 178.419 471.342 179.692 470.688 180.817C470.188 181.676 469.663 182.522 469.114 183.357C467.336 186.094 465.343 188.69 463.275 191.112C463.195 191.217 463.102 191.316 463.01 191.421C462.677 191.816 462.331 192.206 461.985 192.595C460.294 194.505 458.566 196.284 456.893 197.916C454.857 199.906 452.894 201.667 451.135 203.168H431.421L431.341 203.131L428.502 201.871C428.502 201.871 429.31 200.919 430.662 199.121C430.94 198.756 431.236 198.354 431.557 197.916C431.952 197.378 432.378 196.785 432.834 196.142C433.785 194.795 434.865 193.213 436.025 191.421C438.272 187.954 440.833 183.69 443.42 178.753C443.716 178.178 444.018 177.598 444.321 177.01C444.327 176.992 444.34 176.973 444.346 176.955C444.858 175.954 445.364 174.922 445.87 173.871C450.16 164.936 451.388 157.52 451.74 155.117C452.234 151.718 452.918 146.966 452.733 141.738C452.61 138.29 452.11 134.644 450.919 131.022V131.016C450.672 130.256 450.394 129.496 450.079 128.742C449.518 127.389 448.851 126.054 448.061 124.738C444.574 118.942 441.741 118.701 439.488 112.385C438.821 110.513 437.309 106.286 437.772 101.824V101.818C437.828 101.268 437.92 100.712 438.044 100.156V100.15C438.075 99.9952 438.118 99.8347 438.161 99.6802C438.513 98.3145 439.093 96.9609 439.976 95.6756C441.698 93.1793 444.049 91.696 446.154 90.8125L446.16 90.8062C448.592 89.793 450.691 89.5766 451.098 89.5395C460.115 88.7363 467.108 96.3246 470.929 100.471C472.404 102.071 473.756 103.413 474.99 104.506C484.6 113.096 487.235 107.608 487.92 104.772C488.025 104.333 488.081 103.956 488.112 103.709V103.709Z" fill="#A6BCD2"/>
<path d="M488.142 103.388C488.142 103.418 488.136 103.523 488.111 103.697C488.123 103.604 488.13 103.511 488.136 103.425C488.136 103.406 488.136 103.394 488.142 103.388Z" fill="#A6BCD2"/>
<path d="M439.124 233.782H108.271C105.197 233.782 102.691 236.284 102.691 239.362C102.691 242.445 105.197 244.948 108.271 244.948H439.124C442.197 244.948 444.697 242.445 444.697 239.362C444.697 236.284 442.197 233.782 439.124 233.782Z" fill="#E6E6E6"/>
<path d="M365.7 262.628H181.687C178.613 262.628 176.113 265.131 176.113 268.208C176.113 271.285 178.613 273.794 181.687 273.794H365.7C368.774 273.794 371.28 271.285 371.28 268.208C371.28 265.131 368.774 262.628 365.7 262.628Z" fill="#E6E6E6"/>
<path d="M145.086 50.2238L165.937 41.438L174.881 59.7945L152.969 68.7489L145.086 50.2238Z" fill="#FFB6B6"/>
<path opacity="0.1" d="M145.086 50.2238L165.937 41.438L174.881 59.7945L152.969 68.7489L145.086 50.2238Z" fill="black"/>
<path d="M148.051 43.2289L168.621 66.958C168.621 66.958 154.311 112.178 140.001 116.207C125.692 120.237 99.3081 139.936 99.3081 139.936L66.2168 118.446L82.3153 94.7167C82.3153 94.7167 121.22 41.438 131.505 41.438C141.79 41.438 148.051 43.2289 148.051 43.2289V43.2289Z" fill="#A6BCD2"/>
<path d="M120.258 197.916H72.3742L69.3468 193.864L56.9868 177.321L54.1427 173.516C54.1427 173.516 43.4104 153.816 45.6463 135.907C47.8822 117.998 71.1355 113.969 71.1355 113.969H72.0925L100.56 139.014L98.8607 162.323L107.876 177.321L120.258 197.916Z" fill="#2F2E41"/>
<path d="M82.1817 197.916H69.3477V178.888L82.1817 197.916Z" fill="#2F2E41"/>
<path d="M358.994 169.029L357.397 177.321L353.435 197.916H273.842C274.463 193.3 275.313 186.656 276.221 179.483C276.31 178.767 276.404 178.046 276.494 177.321C278.77 159.291 281.26 138.889 281.26 138.889L291.725 140.16L312.026 142.623L320.299 143.626L342.453 146.316C353.498 147.655 361.095 158.087 358.994 169.029H358.994Z" fill="#F2F2F2"/>
<path d="M471.634 197.916H428.463C429.12 197.141 429.491 196.694 429.491 196.694L442.433 194.554L469.098 190.148C469.098 190.148 470.314 193.295 471.634 197.916V197.916Z" fill="#2F2E41"/>
<path d="M288.517 59.1787L307.291 85.7617L274.543 86.7409L271.027 61.7591L288.517 59.1787Z" fill="#A0616A"/>
<path opacity="0.1" d="M288.517 59.1787L307.291 85.7617L274.543 86.7409L271.027 61.7591L288.517 59.1787Z" fill="black"/>
<path d="M195.929 114.257C193.52 107.299 187.982 102.904 183.559 104.44C179.137 105.975 177.506 112.86 179.917 119.819C180.842 122.613 182.421 125.144 184.524 127.201L195.102 156.551L208.753 151.287L196.875 122.912C197.255 119.992 196.93 117.025 195.929 114.257Z" fill="#A0616A"/>
<path d="M323.012 100.712L322.986 127.803L320.469 137.81L315.29 158.392L311.521 177.321L308.712 191.424L307.711 196.461C306.955 196.967 306.204 197.451 305.452 197.916H240.043C236.327 195.682 234.248 193.945 234.248 193.945C234.248 193.945 235.277 192.978 236.453 191.424C238.438 188.801 240.839 184.503 239.368 180.397C239.06 179.537 238.979 178.49 239.073 177.321C239.672 169.611 247.748 156.574 247.748 156.574L246.076 137.223L245.343 128.744L250.513 87.3964L267.368 77.5869L270.277 77.305L299 75.7515L310.871 76.4364L311.412 76.5842L323.012 100.712V100.712Z" fill="#CCCCCC"/>
<path d="M324.29 197.916H309.98L309.349 191.424L309.336 191.294L313.387 191.017L323.927 190.296L324.111 194.182L324.254 197.164L324.29 197.916Z" fill="#FFB6B6"/>
<path d="M327.812 107.262L333.823 142.574L328.917 177.321L328.153 182.73L326.802 192.279L326.386 195.217L326.4 195.534L326.503 197.916H309.51L308.884 191.424L308.83 190.842L307.551 177.545L307.529 177.321L304.814 149.124L310.136 128.744L310.529 127.244V127.239L312.845 92.3439L311.051 76.4857L311.034 76.3379C311.069 76.3603 311.101 76.3827 311.136 76.4051C311.23 76.4633 311.324 76.5215 311.414 76.5842C321.86 83.2194 328.085 94.8601 327.812 107.262Z" fill="#CCCCCC"/>
<path d="M256.603 94.1625L250.068 87.3955C250.068 87.3955 236.08 93.7095 235.382 97.2124C234.685 100.715 209.986 152.164 209.986 152.164L199.241 123.43L185.254 132.78C185.254 132.78 196.477 177.391 206.973 179.485C217.469 181.58 252.647 126.684 252.647 126.684L256.603 94.1625H256.603Z" fill="#CCCCCC"/>
<path d="M521.934 177.011H13.0602C5.85743 177.011 0 182.881 0 190.093C0 197.304 5.85742 203.169 13.0602 203.169H521.934C529.137 203.169 535 197.304 535 190.093C535 182.881 529.137 177.011 521.934 177.011Z" fill="#E6E6E6"/>
<path d="M320.036 137.148L319.046 183.372C318.951 187.847 315.3 191.424 310.83 191.424H225.901C221.536 191.424 217.933 188.008 217.695 183.645L215.171 137.421C214.913 132.707 218.662 128.743 223.377 128.743H311.819C316.427 128.743 320.134 132.535 320.036 137.148Z" fill="#3F3D56"/>
<path d="M182.931 61.382C194.153 61.382 203.25 52.2736 203.25 41.0379C203.25 29.8022 194.153 20.6938 182.931 20.6938C171.709 20.6938 162.611 29.8022 162.611 41.0379C162.611 52.2736 171.709 61.382 182.931 61.382Z" fill="#FFB6B6"/>
<path d="M148.944 94.2688L151.18 118.446L166.385 179.783L153.249 184.393L131.057 117.55L127.992 90.687L148.944 94.2688Z" fill="#FFB6B6"/>
<path d="M142.897 137.148L141.908 183.372C141.812 187.847 138.161 191.424 133.691 191.424H48.7621C44.3975 191.424 40.7942 188.008 40.556 183.645L38.032 137.421C37.7747 132.707 41.523 128.743 46.2381 128.743H134.68C139.288 128.743 142.996 132.535 142.897 137.148Z" fill="#3F3D56"/>
<path d="M168.805 191.737C177.668 191.737 184.853 188.555 184.853 184.63C184.853 180.706 177.668 177.524 168.805 177.524C159.942 177.524 152.758 180.706 152.758 184.63C152.758 188.555 159.942 191.737 168.805 191.737Z" fill="#FFB6B6"/>
<path d="M117.418 97.9653L126.585 49.0493C126.585 49.0493 152.074 45.4675 152.969 53.9742C153.863 62.4809 152.33 104.054 152.33 104.054L117.418 97.9654V97.9653Z" fill="#A6BCD2"/>
<path d="M174.729 44.2368C174.729 44.2368 187.298 39.7453 192.6 37.3287C197.903 34.9121 208.436 51.768 208.67 42.8658C208.905 33.9636 205.265 30.2304 205.265 30.2304C205.265 30.2304 204.356 10.7557 184.759 13.1905C184.759 13.1905 189.07 3.44703 174.921 1.94038C160.772 0.433738 138.759 34.643 140.73 39.7553C142.702 44.8677 145.065 49.0943 139.472 54.5606C133.879 60.0269 123.406 90.8771 131.374 99.1787C139.343 107.48 139.865 111.083 134.406 116.247C128.946 121.412 116.041 132.642 129.995 134.591C143.948 136.541 128.718 135.085 139.12 125.924C149.523 116.763 164.702 117.137 159.034 102.439C153.367 87.7406 163.213 66.6783 161.981 63.4831C160.749 60.2878 164.742 39.9979 164.742 39.9979C164.742 39.9979 174.034 38.631 174.729 44.2368V44.2368Z" fill="#2F2E41"/>
<path d="M278.477 68.8008C290.693 68.8008 300.596 58.8857 300.596 46.6548C300.596 34.4239 290.693 24.5088 278.477 24.5088C266.261 24.5088 256.357 34.4239 256.357 46.6548C256.357 58.8857 266.261 68.8008 278.477 68.8008Z" fill="#A0616A"/>
<path d="M280.243 16.8808C279.603 17.2549 278.746 16.6889 278.54 15.976C278.335 15.263 278.574 14.506 278.811 13.8029L280.005 10.2638C280.851 7.75382 281.749 5.15611 283.583 3.24566C286.349 0.362152 290.747 -0.371399 294.705 0.160033C299.788 0.842498 304.803 3.59834 307.167 8.15549C309.531 12.7126 308.524 19.0715 304.254 21.9147C310.34 28.8996 312.462 36.6841 312.127 45.9478C311.792 55.2115 301.709 63.7371 295.134 70.263C293.665 69.3717 292.33 65.1952 293.138 63.6779C293.945 62.1606 292.788 60.4029 293.788 59.0053C294.788 57.6077 295.625 59.8331 294.614 58.4434C293.976 57.5666 296.466 55.5493 295.518 55.0244C290.931 52.4859 289.405 46.7617 286.525 42.3783C283.05 37.091 277.103 33.5104 270.809 32.9164C267.342 32.5892 263.68 33.1819 260.839 35.197C257.997 37.2122 256.157 40.8133 256.816 44.2368C255.109 42.5019 254.26 39.9594 254.58 37.5455C254.901 35.1317 256.384 32.8995 258.484 31.6711C257.207 27.4434 258.301 22.5804 261.265 19.3089C264.228 16.0374 276.251 16.5946 280.578 17.4556L280.243 16.8808Z" fill="#2F2E41"/>
<path d="M280.914 33.0449C286.645 33.6643 290.782 38.6343 294.276 43.2241C296.29 45.8696 298.4 48.7911 298.349 52.1169C298.298 55.4795 296.053 58.3636 294.979 61.5502C293.225 66.7589 294.935 72.956 299.11 76.5249C294.985 77.3088 290.524 74.2115 289.812 70.0678C288.983 65.2441 292.635 60.5884 292.203 55.7129C291.821 51.4176 288.441 48.1118 285.566 44.9002C282.692 41.6886 279.993 37.4269 281.315 33.3228L280.914 33.0449Z" fill="#2F2E41"/>
<path d="M366.587 179.81C360.911 183.042 357.976 188.595 360.031 192.211C362.086 195.828 368.353 196.138 374.031 192.904C376.317 191.643 378.268 189.852 379.72 187.682L403.598 173.682L396.798 162.603L373.98 177.581C371.373 177.722 368.838 178.486 366.587 179.81Z" fill="#FFB6B6"/>
<path d="M447.433 77.1453C446.72 76.8622 440.459 74.4883 434.743 77.6225C428.177 81.2229 427.163 89.4417 426.807 92.3244C425.985 98.9834 428.406 100.476 428.917 107.217C429.873 119.83 432.394 105.442 428.368 111.199C426.975 113.191 412.742 144.072 404.893 150.121C389.627 161.885 379.934 170.17 379.934 170.17L391 182.206C391 182.206 408.488 177.541 423.944 167.493C439.799 157.185 447.727 152.032 453.86 141.95C454.388 141.081 467.026 119.595 460.239 95.8353C458.691 90.4159 455.854 80.4864 447.433 77.1453Z" fill="#A6BCD2"/>
<path d="M504.579 137.148L503.589 183.372C503.493 187.847 499.843 191.424 495.373 191.424H410.444C406.079 191.424 402.476 188.008 402.238 183.645L399.714 137.421C399.456 132.707 403.205 128.743 407.92 128.743H496.362C500.97 128.743 504.677 132.535 504.579 137.148Z" fill="#3F3D56"/>
</g>
<defs>
<clipPath id="clip0_2371_15100">
<rect width="535" height="273.794" fill="white"/>
</clipPath>
</defs>
</svg>
