<svg width="100" height="48" viewBox="0 0 100 48" fill="none" xmlns="http://www.w3.org/2000/svg">
<path d="M18.275 32.175C17.9083 32.175 17.625 32.075 17.425 31.875C17.225 31.6583 17.125 31.3583 17.125 30.975V15.55C17.125 15.1667 17.225 14.875 17.425 14.675C17.6417 14.475 17.9333 14.375 18.3 14.375H24.25C26.15 14.375 27.6083 14.825 28.625 15.725C29.6583 16.6083 30.175 17.8667 30.175 19.5C30.175 20.5667 29.9417 21.4833 29.475 22.25C29.0083 23 28.3333 23.575 27.45 23.975C26.5667 24.375 25.5 24.575 24.25 24.575L24.5 24.225H25.05C25.7167 24.225 26.2917 24.3917 26.775 24.725C27.275 25.0583 27.7167 25.5917 28.1 26.325L30.4 30.55C30.55 30.8167 30.6167 31.075 30.6 31.325C30.5833 31.575 30.4917 31.7833 30.325 31.95C30.1583 32.1 29.9167 32.175 29.6 32.175C29.2667 32.175 29 32.1083 28.8 31.975C28.6 31.825 28.425 31.6083 28.275 31.325L25.575 26.375C25.2083 25.675 24.7917 25.2167 24.325 25C23.8583 24.7667 23.2333 24.65 22.45 24.65H19.45V30.975C19.45 31.3583 19.35 31.6583 19.15 31.875C18.9667 32.075 18.675 32.175 18.275 32.175ZM19.45 22.85H23.875C25.2083 22.85 26.2083 22.575 26.875 22.025C27.5417 21.4583 27.875 20.6333 27.875 19.55C27.875 18.4667 27.5417 17.65 26.875 17.1C26.2083 16.55 25.2083 16.275 23.875 16.275H19.45V22.85ZM40.9713 32.225C39.8046 32.225 38.7713 32.075 37.8713 31.775C36.988 31.4583 36.2463 31 35.6463 30.4C35.0463 29.7833 34.588 29.025 34.2713 28.125C33.9713 27.2083 33.8213 26.15 33.8213 24.95V15.375C33.8213 14.975 33.9213 14.6833 34.1213 14.5C34.3213 14.3 34.6046 14.2 34.9713 14.2C35.3546 14.2 35.6463 14.3 35.8463 14.5C36.0463 14.6833 36.1463 14.975 36.1463 15.375V24.875C36.1463 26.6583 36.5546 27.9917 37.3713 28.875C38.188 29.7417 39.388 30.175 40.9713 30.175C42.5546 30.175 43.7546 29.7417 44.5713 28.875C45.388 27.9917 45.7963 26.6583 45.7963 24.875V15.375C45.7963 14.975 45.8963 14.6833 46.0963 14.5C46.2963 14.3 46.5796 14.2 46.9463 14.2C47.313 14.2 47.5963 14.3 47.7963 14.5C47.9963 14.6833 48.0963 14.975 48.0963 15.375V24.95C48.0963 26.5333 47.8213 27.8667 47.2713 28.95C46.738 30.0333 45.938 30.85 44.8713 31.4C43.8213 31.95 42.5213 32.225 40.9713 32.225Z" fill="#0A0A0A"/>
<path d="M73.1104 29.9113C71.9413 31.0683 70.0587 31.0683 68.8896 29.9113L64.0611 25.1322C62.1561 23.2469 63.4912 20 66.1714 20L75.8286 20C78.5088 20 79.8439 23.2469 77.9389 25.1322L73.1104 29.9113Z" fill="#0A0A0A"/>
<rect x="1" y="1" width="98" height="46" rx="23" stroke="#FFE0B2" stroke-width="2"/>
</svg>
